<?xml version="1.0" standalone="no"?>
<!DOCTYPE svg PUBLIC "-//W3C//DTD SVG 20010904//EN"
 "http://www.w3.org/TR/2001/REC-SVG-20010904/DTD/svg10.dtd">
<svg version="1.0" xmlns="http://www.w3.org/2000/svg"
 width="348.000000pt" height="348.000000pt" viewBox="0 0 348.000000 348.000000"
 preserveAspectRatio="xMidYMid meet">

<g transform="translate(0.000000,348.000000) scale(0.100000,-0.100000)"
fill="#000000" stroke="none">
<path d="M40 1735 l0 -1695 1695 0 1695 0 0 1695 0 1695 -1695 0 -1695 0 0
-1695z m3370 0 l0 -1675 -1675 0 -1675 0 0 1675 0 1675 1675 0 1675 0 0 -1675z"/>
<path d="M884 3267 c-2 -7 -3 -91 -2 -187 l3 -175 790 0 790 0 0 185 0 185
-788 3 c-636 2 -789 0 -793 -11z m1546 -177 l0 -150 -755 0 -755 0 0 150 0
150 755 0 755 0 0 -150z"/>
<path d="M1470 3090 c0 -93 1 -100 20 -100 19 0 20 7 20 100 0 93 -1 100 -20
100 -19 0 -20 -7 -20 -100z"/>
<path d="M1600 3170 c0 -17 7 -20 50 -20 28 0 50 -5 50 -10 0 -6 -16 -43 -36
-82 -28 -56 -33 -73 -22 -79 7 -5 15 -9 18 -9 8 0 100 188 100 205 0 12 -16
15 -80 15 -73 0 -80 -2 -80 -20z"/>
<path d="M2945 3230 c-46 -10 -79 -35 -103 -79 -56 -98 4 -215 119 -236 72
-13 168 53 184 126 25 111 -85 215 -200 189z m114 -39 c95 -67 90 -187 -10
-239 -97 -51 -209 14 -209 121 0 67 31 109 97 132 44 15 88 10 122 -14z"/>
<path d="M405 2818 c-3 -7 -4 -294 -3 -638 l3 -625 615 0 615 0 0 635 0 635
-613 3 c-485 2 -614 0 -617 -10z m1195 -628 l0 -600 -580 0 -580 0 0 600 0
600 580 0 580 0 0 -600z"/>
<path d="M765 2458 c4 -78 8 -156 9 -173 l2 -30 109 -8 c61 -5 115 -10 121
-12 7 -2 14 -47 18 -117 12 -215 16 -238 38 -238 18 0 19 5 13 98 -4 53 -11
142 -17 197 -9 104 -25 326 -27 383 -1 25 -5 32 -21 32 -20 0 -20 -4 -14 -155
l7 -155 -54 1 c-30 0 -72 3 -94 7 l-40 7 -10 150 c-9 134 -12 150 -29 153 -18
4 -18 -3 -11 -140z"/>
<path d="M1965 2778 c-3 -7 -4 -310 -3 -673 l3 -660 600 0 600 0 0 670 0 670
-598 3 c-473 2 -599 0 -602 -10z m1165 -663 l0 -635 -565 0 -565 0 0 635 0
635 565 0 565 0 0 -635z"/>
<path d="M2350 2420 c0 -19 7 -20 145 -20 l145 0 0 -84 0 -83 -115 -7 c-63 -4
-123 -5 -132 -2 -40 12 -42 -2 -28 -149 8 -77 15 -148 15 -157 0 -16 14 -18
150 -18 143 0 150 1 150 20 0 19 -7 20 -129 20 l-129 0 -5 33 c-3 17 -9 71
-12 118 l-7 86 92 6 c51 4 115 7 142 7 l48 0 0 125 0 125 -165 0 c-158 0 -165
-1 -165 -20z"/>
<path d="M1013 1272 c-128 -46 -220 -151 -258 -297 -52 -203 46 -430 223 -513
81 -38 193 -38 274 0 177 83 275 310 223 513 -60 227 -273 365 -462 297z m234
-56 c160 -80 238 -278 187 -471 -28 -110 -92 -193 -187 -242 -44 -23 -64 -28
-132 -28 -68 0 -88 5 -132 28 -160 84 -238 279 -187 472 34 131 120 225 244
266 48 16 152 4 207 -25z"/>
<path d="M2512 1219 c-114 -44 -211 -189 -234 -347 -39 -269 125 -532 332
-532 65 0 146 36 200 91 144 144 181 401 85 597 -86 174 -234 248 -383 191z
m193 -43 c28 -12 70 -44 93 -70 147 -160 147 -472 0 -632 -113 -123 -263 -123
-376 0 -147 160 -147 472 0 632 52 57 126 94 188 94 26 0 66 -10 95 -24z"/>
</g>
</svg>
