<svg version="1.0" xmlns="http://www.w3.org/2000/svg" width="464" height="464" viewBox="0 0 348 348"><path d="M4 174.5V344h339V5H4v169.5zm337 0V342H6V7h335v167.5z"/><path d="M88.4 21.3c-.2.7-.3 9.1-.2 18.7l.3 17.5h158v-37l-78.8-.3c-63.6-.2-78.9 0-79.3 1.1zM243 39v15H92V24h151v15z"/><path d="M147 39c0 9.3.1 10 2 10s2-.7 2-10-.1-10-2-10-2 .7-2 10zM160 31c0 1.7.7 2 5 2 2.8 0 5 .5 5 1 0 .6-1.6 4.3-3.6 8.2-2.8 5.6-3.3 7.3-2.2 7.9.7.5 1.5.9 1.8.9.8 0 10-18.8 10-20.5 0-1.2-1.6-1.5-8-1.5-7.3 0-8 .2-8 2zM294.5 25c-4.6 1-7.9 3.5-10.3 7.9-5.6 9.8.4 21.5 11.9 23.6 7.2 1.3 16.8-5.3 18.4-12.6 2.5-11.1-8.5-21.5-20-18.9zm11.4 3.9c9.5 6.7 9 18.7-1 23.9-9.7 5.1-20.9-1.4-20.9-12.1 0-6.7 3.1-10.9 9.7-13.2 4.4-1.5 8.8-1 12.2 1.4zM40.5 66.2c-.3.7-.4 29.4-.3 63.8l.3 62.5h123v-127l-61.3-.3c-48.5-.2-61.4 0-61.7 1zM160 129v60H44V69h116v60z"/><path d="M76.5 102.2c.4 7.8.8 15.6.9 17.3l.2 3 10.9.8c6.1.5 11.5 1 12.1 1.2.7.2 1.4 4.7 1.8 11.7 1.2 21.5 1.6 23.8 3.8 23.8 1.8 0 1.9-.5 1.3-9.8-.4-5.3-1.1-14.2-1.7-19.7-.9-10.4-2.5-32.6-2.7-38.3-.1-2.5-.5-3.2-2.1-3.2-2 0-2 .4-1.4 15.5l.7 15.5-5.4-.1c-3 0-7.2-.3-9.4-.7l-4-.7-1-15c-.9-13.4-1.2-15-2.9-15.3-1.8-.4-1.8.3-1.1 14zM196.5 70.2c-.3.7-.4 31-.3 67.3l.3 66h120v-134l-59.8-.3c-47.3-.2-59.9 0-60.2 1zM313 136.5V200H200V73h113v63.5z"/><path d="M235 106c0 1.9.7 2 14.5 2H264V124.7l-11.5.7c-6.3.4-12.3.5-13.2.2-4-1.2-4.2.2-2.8 14.9.8 7.7 1.5 14.8 1.5 15.7 0 1.6 1.4 1.8 15 1.8 14.3 0 15-.1 15-2s-.7-2-12.9-2h-12.9l-.5-3.3c-.3-1.7-.9-7.1-1.2-11.8l-.7-8.6 9.2-.6c5.1-.4 11.5-.7 14.2-.7h4.8v-25h-16.5c-15.8 0-16.5.1-16.5 2zM101.3 220.8c-12.8 4.6-22 15.1-25.8 29.7-5.2 20.3 4.6 43 22.3 51.3 8.1 3.8 19.3 3.8 27.4 0 17.7-8.3 27.5-31 22.3-51.3-6-22.7-27.3-36.5-46.2-29.7zm23.4 5.6c16 8 23.8 27.8 18.7 47.1-2.8 11-9.2 19.3-18.7 24.2-4.4 2.3-6.4 2.8-13.2 2.8-6.8 0-8.8-.5-13.2-2.8-16-8.4-23.8-27.9-18.7-47.2 3.4-13.1 12-22.5 24.4-26.6 4.8-1.6 15.2-.4 20.7 2.5zM251.2 226.1c-11.4 4.4-21.1 18.9-23.4 34.7-3.9 26.9 12.5 53.2 33.2 53.2 6.5 0 14.6-3.6 20-9.1 14.4-14.4 18.1-40.1 8.5-59.7-8.6-17.4-23.4-24.8-38.3-19.1zm19.3 4.3c2.8 1.2 7 4.4 9.3 7 14.7 16 14.7 47.2 0 63.2-11.3 12.3-26.3 12.3-37.6 0-14.7-16-14.7-47.2 0-63.2 5.2-5.7 12.6-9.4 18.8-9.4 2.6 0 6.6 1 9.5 2.4z"/></svg>